<svg width="161" height="90" viewBox="0 0 161 90" fill="none" xmlns="http://www.w3.org/2000/svg">
<path d="M161 0H0V90H161V0Z" fill="white"/>
<path d="M161 0H0V90H161V0Z" fill="#990000"/>
<path d="M62.2217 52.5687C59.7321 52.5687 57.5192 52.1523 55.5829 51.3195C53.6811 50.4868 51.8312 49.1856 50.0332 47.4159C49.6183 47.0689 49.4108 46.6525 49.4108 46.1668C49.4108 45.7504 49.5664 45.3687 49.8776 45.0217C50.2234 44.6747 50.6037 44.5012 51.0187 44.5012C51.4336 44.5012 51.8139 44.6747 52.1597 45.0217C54.8567 48.0058 58.228 49.4978 62.2735 49.4978C64.7631 49.4978 66.8204 48.908 68.4456 47.7282C70.1053 46.5484 70.9351 45.0044 70.9351 43.0959C70.9351 41.6039 70.5202 40.3721 69.6903 39.4005C68.8951 38.3942 67.8405 37.5788 66.5265 36.9542C65.2126 36.3297 63.5356 35.6877 61.4956 35.0285C59.2826 34.3692 57.4154 33.6405 55.894 32.8424C54.4072 32.0444 53.197 30.986 52.2634 29.6675C51.3299 28.3142 50.8631 26.614 50.8631 24.5668C50.8631 22.7277 51.3471 21.0969 52.3153 19.6742C53.318 18.2516 54.7011 17.1412 56.4646 16.3432C58.2626 15.5104 60.3199 15.094 62.6366 15.094C64.7458 15.094 66.7167 15.4583 68.5493 16.187C70.4165 16.881 71.9033 17.8872 73.0098 19.2058C73.5284 19.7957 73.7877 20.2988 73.7877 20.7152C73.7877 21.0969 73.6149 21.4612 73.2691 21.8082C72.9233 22.1205 72.543 22.2766 72.128 22.2766C71.7823 22.2766 71.4884 22.1552 71.2463 21.9123C70.3127 20.8019 69.068 19.8998 67.512 19.2058C65.956 18.5118 64.3309 18.1648 62.6366 18.1648C60.1125 18.1648 58.0551 18.7374 56.4646 19.8824C54.874 20.9928 54.0787 22.5195 54.0787 24.4627C54.0787 26.4752 54.8394 28.0193 56.3608 29.095C57.8822 30.1706 60.0606 31.1595 62.8959 32.0617C65.3509 32.7904 67.3564 33.5364 68.9124 34.2998C70.4683 35.0631 71.7304 36.1562 72.6986 37.5788C73.7013 38.9668 74.2027 40.8058 74.2027 43.0959C74.2027 44.8656 73.684 46.4791 72.6467 47.9364C71.644 49.3591 70.2263 50.4868 68.3937 51.3195C66.5957 52.1523 64.5383 52.5687 62.2217 52.5687ZM103.534 32.6863C105.609 33.2068 107.303 34.2477 108.617 35.8092C109.931 37.3706 110.588 39.4005 110.588 41.8988C110.588 45.2993 109.533 47.8497 107.424 49.5499C105.349 51.2154 102.756 52.0482 99.644 52.0482H85.6921C85.2426 52.0482 84.8623 51.9094 84.5511 51.6318C84.2745 51.3195 84.1361 50.9378 84.1361 50.4868V17.1759C84.1361 16.7248 84.2745 16.3605 84.5511 16.0829C84.8623 15.7706 85.2426 15.6145 85.6921 15.6145H99.4366C102.341 15.6145 104.606 16.4125 106.231 18.0087C107.891 19.6048 108.72 21.7909 108.72 24.5668C108.72 26.4058 108.271 28.054 107.372 29.5113C106.473 30.9687 105.194 32.027 103.534 32.6863ZM105.401 24.827C105.401 22.9186 104.831 21.4265 103.69 20.3509C102.583 19.2405 101.027 18.6853 99.0216 18.6853H87.4556V31.6974H99.0216C100.889 31.6627 102.41 31.0554 103.586 29.8757C104.796 28.6959 105.401 27.013 105.401 24.827ZM99.4884 48.9774C101.805 48.9774 103.672 48.3875 105.09 47.2077C106.542 46.028 107.268 44.2583 107.268 41.8988C107.268 39.4699 106.525 37.6829 105.038 36.5378C103.586 35.3928 101.701 34.8203 99.3847 34.8203H87.4556V48.9774H99.4884Z" fill="white"/>
<path d="M49.8063 71.7614C48.8727 71.7614 48.0428 71.6053 47.3167 71.293C46.6036 70.9807 45.9098 70.4928 45.2356 69.8292C45.08 69.699 45.0022 69.5429 45.0022 69.3607C45.0022 69.2046 45.0605 69.0614 45.1772 68.9313C45.3069 68.8012 45.4495 68.7361 45.6051 68.7361C45.7607 68.7361 45.9034 68.8012 46.033 68.9313C47.0444 70.0504 48.3086 70.6099 49.8257 70.6099C50.7593 70.6099 51.5308 70.3887 52.1402 69.9463C52.7626 69.5039 53.0738 68.9248 53.0738 68.2092C53.0738 67.6496 52.9182 67.1877 52.607 66.8234C52.3088 66.446 51.9133 66.1402 51.4206 65.906C50.9279 65.6718 50.299 65.4311 49.534 65.1839C48.7041 64.9366 48.0039 64.6634 47.4334 64.3641C46.8758 64.0648 46.422 63.6679 46.0719 63.1735C45.7218 62.666 45.5468 62.0284 45.5468 61.2607C45.5468 60.5711 45.7283 59.9595 46.0914 59.426C46.4674 58.8925 46.9861 58.4761 47.6474 58.1769C48.3216 57.8646 49.0931 57.7084 49.9619 57.7084C50.7528 57.7084 51.4919 57.8451 52.1791 58.1183C52.8793 58.3786 53.4369 58.7559 53.8518 59.2504C54.0463 59.4716 54.1435 59.6602 54.1435 59.8164C54.1435 59.9595 54.0787 60.0961 53.949 60.2263C53.8194 60.3434 53.6768 60.4019 53.5212 60.4019C53.3915 60.4019 53.2813 60.3564 53.1905 60.2653C52.8404 59.8489 52.3736 59.5106 51.7901 59.2504C51.2066 58.9901 50.5972 58.86 49.9619 58.86C49.0153 58.86 48.2438 59.0747 47.6474 59.5041C47.0509 59.9205 46.7527 60.493 46.7527 61.2217C46.7527 61.9764 47.0379 62.5554 47.6085 62.9588C48.179 63.3622 48.9959 63.733 50.0591 64.0713C50.9797 64.3446 51.7318 64.6243 52.3153 64.9106C52.8988 65.1969 53.372 65.6067 53.7351 66.1402C54.1111 66.6607 54.2991 67.3504 54.2991 68.2092C54.2991 68.8728 54.1046 69.4778 53.7157 70.0243C53.3396 70.5578 52.808 70.9807 52.1208 71.293C51.4465 71.6053 50.675 71.7614 49.8063 71.7614ZM66.018 57.9036C66.1866 57.9036 66.3227 57.9557 66.4264 58.0598C66.5431 58.1639 66.6015 58.3005 66.6015 58.4696C66.6015 58.6388 66.5431 58.7754 66.4264 58.8795C66.3227 58.9706 66.1866 59.0161 66.018 59.0161H61.9919V70.9807C61.9919 71.1499 61.9336 71.293 61.8169 71.4101C61.7002 71.5142 61.5575 71.5663 61.389 71.5663C61.2074 71.5663 61.0583 71.5142 60.9416 71.4101C60.8379 71.293 60.786 71.1499 60.786 70.9807V59.0161H56.76C56.5914 59.0161 56.4488 58.9641 56.3321 58.86C56.2283 58.7559 56.1765 58.6193 56.1765 58.4501C56.1765 58.294 56.2283 58.1639 56.3321 58.0598C56.4488 57.9557 56.5914 57.9036 56.76 57.9036H66.018ZM79.001 57.9036C79.1695 57.9036 79.3057 57.9622 79.4094 58.0793C79.5261 58.1834 79.5845 58.32 79.5845 58.4892V66.5696C79.5845 67.5195 79.3575 68.3913 78.9037 69.1851C78.4499 69.9788 77.834 70.6034 77.056 71.0588C76.278 71.5142 75.4222 71.7419 74.4886 71.7419C73.5421 71.7419 72.6798 71.5142 71.9018 71.0588C71.1239 70.6034 70.508 69.9788 70.0541 69.1851C69.6003 68.3913 69.3734 67.5195 69.3734 66.5696V58.4892C69.3734 58.32 69.4253 58.1834 69.529 58.0793C69.6457 57.9622 69.8013 57.9036 69.9958 57.9036C70.1514 57.9036 70.2875 57.9622 70.4042 58.0793C70.5209 58.1834 70.5793 58.32 70.5793 58.4892V66.5696C70.5793 67.2983 70.7543 67.9684 71.1044 68.58C71.4545 69.1916 71.9278 69.6795 72.5242 70.0439C73.1337 70.3952 73.7885 70.5708 74.4886 70.5708C75.2018 70.5708 75.8566 70.3952 76.4531 70.0439C77.0625 69.6795 77.5422 69.1916 77.8923 68.58C78.2554 67.9684 78.4369 67.2983 78.4369 66.5696V58.4892C78.4369 58.32 78.4888 58.1834 78.5925 58.0793C78.6963 57.9622 78.8324 57.9036 79.001 57.9036ZM89.0737 57.9036C90.3185 57.9036 91.3623 58.2159 92.2051 58.8405C93.0609 59.452 93.6963 60.2783 94.1112 61.3193C94.5391 62.3472 94.753 63.4858 94.753 64.7349C94.753 66.0231 94.5391 67.1812 94.1112 68.2092C93.6963 69.2371 93.0609 70.0569 92.2051 70.6684C91.3623 71.267 90.3185 71.5663 89.0737 71.5663H84.1141C83.9455 71.5663 83.8029 71.5142 83.6862 71.4101C83.5824 71.293 83.5306 71.1499 83.5306 70.9807V58.4892C83.5306 58.32 83.5824 58.1834 83.6862 58.0793C83.8029 57.9622 83.9455 57.9036 84.1141 57.9036H89.0737ZM88.8792 70.4147C90.4352 70.4147 91.5957 69.8942 92.3607 68.8533C93.1257 67.7993 93.5083 66.4265 93.5083 64.7349C93.5083 63.681 93.3462 62.7311 93.022 61.8853C92.6979 61.0265 92.1857 60.3434 91.4855 59.8359C90.7983 59.3154 89.9295 59.0552 88.8792 59.0552H84.7559V70.4147H88.8792ZM99.0271 70.9612C99.0141 71.1304 98.9493 71.2735 98.8326 71.3906C98.7159 71.5077 98.5733 71.5663 98.4047 71.5663C98.2232 71.5663 98.0741 71.5142 97.9574 71.4101C97.8536 71.293 97.8018 71.1434 97.8018 70.9612V58.5087C97.8018 58.3265 97.8601 58.1834 97.9768 58.0793C98.0935 57.9622 98.2426 57.9036 98.4242 57.9036C98.5927 57.9036 98.7354 57.9622 98.8521 58.0793C98.9688 58.1964 99.0271 58.3395 99.0271 58.5087V70.9612ZM115.092 64.7349C115.092 66.0752 114.814 67.2788 114.256 68.3458C113.698 69.4128 112.927 70.252 111.941 70.8636C110.956 71.4622 109.834 71.7614 108.577 71.7614C107.319 71.7614 106.198 71.4622 105.212 70.8636C104.227 70.252 103.455 69.4128 102.898 68.3458C102.34 67.2788 102.061 66.0752 102.061 64.7349C102.061 63.3817 102.34 62.1716 102.898 61.1046C103.455 60.0376 104.227 59.2048 105.212 58.6063C106.198 58.0077 107.319 57.7084 108.577 57.7084C109.834 57.7084 110.956 58.0077 111.941 58.6063C112.927 59.2048 113.698 60.0376 114.256 61.1046C114.814 62.1716 115.092 63.3817 115.092 64.7349ZM113.848 64.7349C113.848 63.6029 113.621 62.5945 113.167 61.7096C112.726 60.8118 112.104 60.1157 111.3 59.6212C110.509 59.1267 109.601 58.8795 108.577 58.8795C107.553 58.8795 106.638 59.1267 105.834 59.6212C105.044 60.1157 104.421 60.8118 103.967 61.7096C103.526 62.5945 103.306 63.6029 103.306 64.7349C103.306 65.867 103.526 66.8819 103.967 67.7798C104.421 68.6646 105.044 69.3542 105.834 69.8487C106.638 70.3431 107.553 70.5904 108.577 70.5904C109.601 70.5904 110.509 70.3431 111.3 69.8487C112.104 69.3542 112.726 68.6646 113.167 67.7798C113.621 66.8819 113.848 65.867 113.848 64.7349Z" fill="white"/>
</svg>
