<svg width="39" height="39" viewBox="0 0 39 39" fill="none" xmlns="http://www.w3.org/2000/svg">
<path d="M12.5654 25.2132H12.5672C12.5687 25.2132 12.5701 25.2129 12.5716 25.2129H33.2871C33.7971 25.2129 34.2455 24.8746 34.3857 24.3842L38.956 8.38813C39.0545 8.04327 38.9854 7.67253 38.7697 7.38629C38.5537 7.10005 38.216 6.93164 37.8574 6.93164H9.93031L9.11355 3.25605C8.99721 2.73326 8.53363 2.36133 7.99805 2.36133H1.14258C0.511482 2.36133 0 2.87281 0 3.50391C0 4.135 0.511482 4.64648 1.14258 4.64648H7.0816C7.22621 5.29781 10.9902 22.2359 11.2068 23.2104C9.9925 23.7383 9.14062 24.949 9.14062 26.3555C9.14062 28.2455 10.6783 29.7832 12.5684 29.7832H33.2871C33.9182 29.7832 34.4297 29.2717 34.4297 28.6406C34.4297 28.0095 33.9182 27.498 33.2871 27.498H12.5684C11.9385 27.498 11.4258 26.9854 11.4258 26.3555C11.4258 25.7265 11.9367 25.2147 12.5654 25.2132ZM36.3426 9.2168L32.4251 22.9277H13.4848L10.4379 9.2168H36.3426Z" fill="#E4E4E4"/>
<path d="M11.4258 33.2109C11.4258 35.101 12.9635 36.6387 14.8535 36.6387C16.7435 36.6387 18.2812 35.101 18.2812 33.2109C18.2812 31.3209 16.7435 29.7832 14.8535 29.7832C12.9635 29.7832 11.4258 31.3209 11.4258 33.2109ZM14.8535 32.0684C15.4834 32.0684 15.9961 32.581 15.9961 33.2109C15.9961 33.8408 15.4834 34.3535 14.8535 34.3535C14.2236 34.3535 13.7109 33.8408 13.7109 33.2109C13.7109 32.581 14.2236 32.0684 14.8535 32.0684Z" fill="#E4E4E4"/>
<path d="M27.5742 33.2109C27.5742 35.101 29.1119 36.6387 31.002 36.6387C32.892 36.6387 34.4297 35.101 34.4297 33.2109C34.4297 31.3209 32.892 29.7832 31.002 29.7832C29.1119 29.7832 27.5742 31.3209 27.5742 33.2109ZM31.002 32.0684C31.6319 32.0684 32.1445 32.581 32.1445 33.2109C32.1445 33.8408 31.6319 34.3535 31.002 34.3535C30.372 34.3535 29.8594 33.8408 29.8594 33.2109C29.8594 32.581 30.372 32.0684 31.002 32.0684Z" fill="#E4E4E4"/>
</svg>
